<?xml version="1.0" encoding="UTF-8"?>
<svg id="Layer_2" data-name="Layer 2" xmlns="http://www.w3.org/2000/svg" xmlns:xlink="http://www.w3.org/1999/xlink" viewBox="0 0 2132.82 977.54">
  <defs>
    <style>
      .cls-1 {
        fill: url(#linear-gradient);
      }

      .cls-2 {
        opacity: .9;
      }

      .cls-3 {
        opacity: .86;
      }

      .cls-4 {
        opacity: .81;
      }

      .cls-5 {
        opacity: .76;
      }

      .cls-6 {
        opacity: .71;
      }

      .cls-7 {
        opacity: .7;
      }

      .cls-8 {
        opacity: .95;
      }

      .cls-9 {
        opacity: .43;
      }

      .cls-10 {
        opacity: .38;
      }

      .cls-11 {
        opacity: .67;
      }

      .cls-12 {
        opacity: .62;
      }

      .cls-13 {
        opacity: .57;
      }

      .cls-14 {
        opacity: .52;
      }

      .cls-15 {
        opacity: .48;
      }

      .cls-16 {
        opacity: .19;
      }

      .cls-17 {
        opacity: .33;
      }

      .cls-18 {
        opacity: .29;
      }

      .cls-19 {
        opacity: .24;
      }

      .cls-20 {
        opacity: .1;
      }

      .cls-21 {
        opacity: .14;
      }

      .cls-22 {
        opacity: .05;
      }

      .cls-23 {
        opacity: 0;
      }
    </style>
    <linearGradient id="linear-gradient" x1="1066.41" y1="87.34" x2="1066.41" y2="857.56" gradientUnits="userSpaceOnUse">
      <stop offset="0" stop-color="#3a3a3a"/>
      <stop offset=".41" stop-color="#363636"/>
      <stop offset=".71" stop-color="#2d2d2d"/>
      <stop offset=".98" stop-color="#1d1d1d"/>
      <stop offset="1" stop-color="#1c1c1c"/>
    </linearGradient>
  </defs>
  <g id="Layer_1-2" data-name="Layer 1">
    <g class="cls-7">
      <rect class="cls-23" width="2132.82" height="977.54" rx="190.85" ry="190.85"/>
      <rect class="cls-22" x="3.84" y="3.51" width="2125.13" height="970.2" rx="189.78" ry="189.78"/>
      <rect class="cls-20" x="7.69" y="7.01" width="2117.44" height="962.87" rx="188.71" ry="188.71"/>
      <rect class="cls-21" x="11.53" y="10.52" width="2109.75" height="955.53" rx="187.64" ry="187.64"/>
      <rect class="cls-16" x="15.37" y="14.03" width="2102.07" height="948.19" rx="186.58" ry="186.58"/>
      <rect class="cls-19" x="19.22" y="17.53" width="2094.38" height="940.85" rx="185.51" ry="185.51"/>
      <rect class="cls-18" x="23.06" y="21.04" width="2086.69" height="933.52" rx="184.44" ry="184.44"/>
      <rect class="cls-17" x="26.9" y="24.55" width="2079.01" height="926.18" rx="183.37" ry="183.37"/>
      <rect class="cls-10" x="30.75" y="28.05" width="2071.32" height="918.84" rx="182.3" ry="182.3"/>
      <path class="cls-9" d="M215.82,31.56h1701.17c100.02,0,181.23,81.21,181.23,181.23v549.04c0,100.02-81.21,181.23-181.23,181.23H215.82c-100.02,0-181.23-81.21-181.23-181.23V212.79c0-100.02,81.21-181.23,181.23-181.23Z"/>
      <rect class="cls-15" x="38.44" y="35.06" width="2055.94" height="904.17" rx="180.16" ry="180.16"/>
      <rect class="cls-14" x="42.28" y="38.57" width="2048.26" height="896.83" rx="179.09" ry="179.09"/>
      <rect class="cls-13" x="46.12" y="42.08" width="2040.57" height="889.49" rx="178.03" ry="178.03"/>
      <rect class="cls-12" x="49.97" y="45.58" width="2032.88" height="882.16" rx="176.96" ry="176.96"/>
      <rect class="cls-11" x="53.81" y="49.09" width="2025.2" height="874.82" rx="175.89" ry="175.89"/>
      <rect class="cls-6" x="57.65" y="52.6" width="2017.51" height="867.48" rx="174.82" ry="174.82"/>
      <rect class="cls-5" x="61.5" y="56.1" width="2009.82" height="860.14" rx="173.75" ry="173.75"/>
      <rect class="cls-4" x="65.34" y="59.61" width="2002.14" height="852.81" rx="172.68" ry="172.68"/>
      <rect class="cls-3" x="69.18" y="63.12" width="1994.45" height="845.47" rx="171.61" ry="171.61"/>
      <rect class="cls-2" x="73.03" y="66.62" width="1986.76" height="838.13" rx="170.54" ry="170.54"/>
      <rect class="cls-8" x="76.87" y="70.13" width="1979.07" height="830.8" rx="169.47" ry="169.47"/>
      <rect x="80.71" y="73.64" width="1971.39" height="823.46" rx="168.41" ry="168.41"/>
    </g>
    <rect class="cls-1" x="80.71" y="77.04" width="1971.39" height="823.46" rx="168.41" ry="168.41"/>
  </g>
</svg>