<?xml version="1.0" encoding="UTF-8"?>
<svg xmlns="http://www.w3.org/2000/svg" xmlns:xlink="http://www.w3.org/1999/xlink" viewBox="0 0 486.55 484.8">
  <defs>
    <style>
      .cls-1 {
        fill: #8dc63f;
      }

      .cls-2 {
        fill: url(#linear-gradient-2);
      }

      .cls-3 {
        isolation: isolate;
      }

      .cls-4 {
        fill: #ed1c24;
      }

      .cls-5 {
        fill: #d71920;
      }

      .cls-6 {
        fill: #50b848;
      }

      .cls-7 {
        fill: #fdb913;
      }

      .cls-8 {
        fill: #fd0;
      }

      .cls-9 {
        fill: #00ab4e;
      }

      .cls-10 {
        fill: url(#linear-gradient);
        filter: url(#drop-shadow-1);
      }

      .cls-11 {
        fill: #f7941d;
      }

      .cls-12 {
        fill: #bfd730;
      }

      .cls-13 {
        fill: #f37021;
      }

      .cls-14 {
        fill: #231f20;
        mix-blend-mode: multiply;
        opacity: .25;
      }

      .cls-15 {
        fill: #a7a9ac;
      }
    </style>
    <linearGradient id="linear-gradient" x1="165.23" y1="319.47" x2="361.07" y2="123.63" gradientTransform="translate(439.77 -73.64) rotate(80.8)" gradientUnits="userSpaceOnUse">
      <stop offset="0" stop-color="#e6e6e6"/>
      <stop offset=".04" stop-color="#eaeaea"/>
      <stop offset=".19" stop-color="#f6f6f6"/>
      <stop offset=".41" stop-color="#fdfdfd"/>
      <stop offset="1" stop-color="#fff"/>
    </linearGradient>
    <filter id="drop-shadow-1" x="0" y="0" width="484.8" height="484.8" filterUnits="userSpaceOnUse">
      <feOffset dx="-20.76" dy="20.76"/>
      <feGaussianBlur result="blur" stdDeviation="34.6"/>
      <feFlood flood-color="#231f20" flood-opacity=".3"/>
      <feComposite in2="blur" operator="in"/>
      <feComposite in="SourceGraphic"/>
    </filter>
    <linearGradient id="linear-gradient-2" x1="353.06" y1="131.64" x2="173.24" y2="311.46" gradientUnits="userSpaceOnUse">
      <stop offset="0" stop-color="#f2f2f2"/>
      <stop offset=".08" stop-color="#f5f5f5"/>
      <stop offset=".35" stop-color="#fcfcfc"/>
      <stop offset="1" stop-color="#fff"/>
    </linearGradient>
  </defs>
  <g class="cls-3">
    <g id="Layer_2" data-name="Layer 2">
      <g id="volume">
        <g>
          <g>
            <circle class="cls-10" cx="263.15" cy="221.55" r="138.48" transform="translate(2.37 445.88) rotate(-80.8)"/>
            <path class="cls-2" d="M390.3,221.55c0,70.22-56.92,127.15-127.15,127.15s-127.15-56.93-127.15-127.15,56.92-127.15,127.15-127.15,127.15,56.92,127.15,127.15Z"/>
          </g>
          <g>
            <path class="cls-9" d="M109.63,217.55c.4-15.6,3.13-30.61,7.84-44.72l-11.44-4.16c-4.27,15.44-6.67,31.8-6.97,48.88h10.57Z"/>
            <path class="cls-6" d="M120.2,165.31c5.62-14.27,13.32-27.5,22.72-39.31l-12.58-10.55c-9.27,13.88-16.71,29.15-22.01,45.55l11.86,4.32Z"/>
            <path class="cls-5" d="M408.78,270.35l65.75,23.93c7.76-20.9,12.01-43.5,12.01-67.1,0-.55-.02-1.09-.02-1.63h-69.86c-.4,15.63-3.15,30.67-7.88,44.8Z"/>
            <path class="cls-12" d="M227.31,42.08c-17.75,5.95-34.23,14.27-49.08,24.62l11.51,19.93c13.18-7.18,27.52-12.49,42.68-15.57l-5.11-28.98Z"/>
            <path class="cls-1" d="M148.06,119.87c10.05-11.37,21.76-21.24,34.75-29.23l-11.09-19.21c-14,10.69-26.39,23.26-36.78,37.43l13.12,11.01Z"/>
            <path class="cls-8" d="M285.74,69.64l6.74-38.2c-20.09.12-39.38,2.97-57.47,8.23l5.29,30.01c7.46-1.11,15.08-1.69,22.85-1.69s15.22.57,22.59,1.66Z"/>
            <path class="cls-13" d="M406.06,165.23l61.4-22.35c-9.78-20.52-23-39.13-38.9-55.02l-45.3,38.01c9.43,11.82,17.16,25.06,22.8,39.36Z"/>
            <path class="cls-4" d="M408.8,172.75c4.73,14.13,7.47,29.18,7.87,44.8h69.64c-1.16-23.71-6.6-46.43-15.55-67.35l-61.96,22.55Z"/>
            <path class="cls-11" d="M343.28,90.52c13.02,7.98,24.76,17.85,34.83,29.22l44.65-37.46c-15.92-14.67-34.24-26.71-54.29-35.39l-25.19,43.63Z"/>
            <path class="cls-7" d="M293.62,71.01c15.17,3.05,29.54,8.34,42.74,15.51l24.64-42.67c-18.91-7.24-39.23-11.53-60.42-12.29l-6.96,39.45Z"/>
          </g>
          <path class="cls-14" d="M151.73,89.12c5.94-5.97,12.28-11.55,19-16.68l10.94,18.94c.39-.24.76-.5,1.15-.74l-11.09-19.21c-7.1,5.42-13.78,11.33-20,17.68ZM148.06,119.87c2.25-2.55,4.6-5.01,7.02-7.4-2.44,2.37-4.79,4.84-7.07,7.37l.05.04ZM129.58,116.64l12.35,10.36c-9.14,11.48-16.65,24.31-22.23,38.13l.51.18c5.62-14.27,13.32-27.5,22.72-39.31l-12.58-10.55c-.26.39-.51.8-.77,1.19ZM486.53,225.55h-69.86c0,.33-.03.66-.04,1h68.91c0,.55.02,1.09.02,1.63,0,23.15-4.1,45.33-11.58,65.89l.57.21c7.76-20.9,12.01-43.5,12.01-67.1,0-.55-.02-1.09-.02-1.63ZM178.23,66.7l.14.24c14.55-9.99,30.64-18.05,47.94-23.85l4.98,28.23c.38-.08.75-.18,1.13-.25l-5.11-28.98c-17.75,5.95-34.23,14.27-49.08,24.62ZM105.71,169.92l10.76,3.92c-4.61,13.8-7.31,28.48-7.8,43.72h.96c.4-15.6,3.13-30.61,7.84-44.72l-11.44-4.16c-.11.41-.21.83-.32,1.25ZM485.25,217.55h1.06c-1.16-23.71-6.6-46.43-15.55-67.36l-61.96,22.55c.06.19.12.38.18.57l60.78-22.12c8.82,20.63,14.22,43.01,15.49,66.36ZM235.13,40.35c17.77-5.06,36.67-7.8,56.35-7.91l-6.54,37.1c.27.04.54.06.81.1l6.74-38.2c-20.09.12-39.38,2.97-57.47,8.23l.12.68ZM466.2,143.34l1.26-.46c-9.78-20.52-23-39.13-38.9-55.02l-45.3,38.01s.05.07.08.1l44.23-37.11c15.76,15.75,28.88,34.17,38.63,54.48ZM422.77,82.28c-15.92-14.67-34.24-26.71-54.29-35.39l-.66,1.15c19.88,8.65,38.05,20.61,53.86,35.16l1.09-.92ZM300.4,32.59c20.89.84,40.93,5.1,59.6,12.25l-23.96,41.5c.11.06.22.11.33.17l24.64-42.67c-18.91-7.24-39.23-11.53-60.42-12.29l-.18,1.04Z"/>
          <path class="cls-8" d="M275.36,122.15c0,6.75-5.47,12.21-12.21,12.21s-12.21-5.47-12.21-12.21,5.47-12.21,12.21-12.21,12.21,5.47,12.21,12.21Z"/>
          <path class="cls-14" d="M263.15,109.93c-3.63,0-6.88,1.59-9.11,4.1,2.16-1.92,5-3.1,8.11-3.1,6.75,0,12.21,5.47,12.21,12.21,0,3.12-1.18,5.96-3.1,8.11,2.51-2.24,4.1-5.49,4.1-9.11,0-6.75-5.47-12.21-12.21-12.21Z"/>
        </g>
        <path class="cls-15" d="M412.62,306.96v11.27h5.44l8.05,7.99v-27.26l-8.05,7.99h-5.44ZM434.99,312.59c0-1.21-.23-2.39-.68-3.5-.47-1.16-1.16-2.19-2.04-3.08-.29-.29-.69-.46-1.1-.46s-.81.16-1.1.46c-.29.29-.46.69-.46,1.1s.16.81.46,1.1c1.17,1.17,1.81,2.72,1.81,4.37s-.64,3.2-1.81,4.37c-.29.29-.46.69-.46,1.1s.16.81.46,1.1c.3.29.69.46,1.1.46s.81-.16,1.1-.46c.89-.89,1.58-1.92,2.04-3.08.45-1.12.68-2.29.68-3.5ZM445.59,304.51c-1.08-2.66-2.67-5.05-4.72-7.1-.29-.3-.69-.46-1.1-.46s-.81.16-1.1.46c-.61.61-.61,1.6,0,2.21,7.16,7.16,7.16,18.8,0,25.95-.29.29-.46.69-.46,1.1s.16.81.46,1.1c.29.29.69.46,1.1.46s.81-.16,1.1-.46c2.05-2.05,3.64-4.44,4.72-7.1,1.04-2.57,1.57-5.29,1.57-8.08s-.53-5.51-1.57-8.08ZM441.08,312.59c0-2-.38-3.95-1.13-5.79-.78-1.91-1.91-3.62-3.38-5.09-.29-.29-.69-.46-1.1-.46s-.81.16-1.1.46c-.29.29-.46.69-.46,1.1s.16.81.46,1.1c4.78,4.78,4.78,12.57,0,17.35-.3.29-.46.69-.46,1.1s.16.81.46,1.1c.29.29.69.46,1.1.46s.81-.16,1.1-.46c1.47-1.47,2.61-3.18,3.38-5.09.75-1.84,1.13-3.79,1.13-5.79Z"/>
        <g>
          <path class="cls-15" d="M104.4,241.26l4.37-4.37c.66-.66.66-1.73,0-2.4-.66-.66-1.73-.66-2.4,0l-4.37,4.37-4.37-4.37c-.66-.66-1.73-.66-2.4,0s-.66,1.73,0,2.4l4.37,4.37-4.37,4.37c-.66.66-.66,1.74,0,2.4.33.33.76.5,1.2.5s.87-.17,1.2-.5l4.37-4.37,4.37,4.37c.33.33.76.5,1.2.5s.87-.17,1.2-.5c.66-.66.66-1.74,0-2.4l-4.37-4.37Z"/>
          <polygon class="cls-15" points="77.57 235.62 77.57 246.89 83.01 246.89 91.07 254.89 91.07 227.63 83.01 235.62 77.57 235.62"/>
        </g>
      </g>
    </g>
  </g>
</svg>