<?xml version="1.0" encoding="UTF-8"?>
<svg xmlns="http://www.w3.org/2000/svg" xmlns:xlink="http://www.w3.org/1999/xlink" viewBox="0 0 912.98 276.61">
  <defs>
    <style>
      .cls-1 {
        fill: url(#linear-gradient-2);
      }

      .cls-1, .cls-2, .cls-3, .cls-4, .cls-5, .cls-6, .cls-7, .cls-8, .cls-9, .cls-10, .cls-11, .cls-12, .cls-13, .cls-14 {
        fill-rule: evenodd;
      }

      .cls-2 {
        fill: url(#radial-gradient-2);
      }

      .cls-2, .cls-5, .cls-14 {
        mix-blend-mode: multiply;
      }

      .cls-3 {
        fill: url(#radial-gradient-5);
        opacity: .3;
      }

      .cls-3, .cls-4, .cls-6, .cls-7, .cls-8, .cls-10, .cls-11, .cls-12, .cls-13 {
        mix-blend-mode: screen;
      }

      .cls-4 {
        fill: url(#radial-gradient);
      }

      .cls-5 {
        fill: url(#linear-gradient-3);
      }

      .cls-6 {
        fill: #c5d4ff;
      }

      .cls-15 {
        isolation: isolate;
      }

      .cls-7 {
        fill: url(#linear-gradient-4);
      }

      .cls-8, .cls-14 {
        fill: #6ce9ff;
      }

      .cls-9 {
        fill: url(#linear-gradient);
      }

      .cls-10 {
        fill: url(#linear-gradient-5);
        opacity: .5;
      }

      .cls-11 {
        fill: #83aaff;
      }

      .cls-12 {
        fill: url(#radial-gradient-4);
      }

      .cls-13 {
        fill: url(#radial-gradient-3);
      }
    </style>
    <linearGradient id="linear-gradient" x1="744.37" y1="426.19" x2="168.6" y2="-149.58" gradientUnits="userSpaceOnUse">
      <stop offset="0" stop-color="#002ee6"/>
      <stop offset="1" stop-color="#0bf"/>
    </linearGradient>
    <linearGradient id="linear-gradient-2" x1="729.59" y1="411.41" x2="183.39" y2="-134.8" gradientUnits="userSpaceOnUse">
      <stop offset="0" stop-color="#0c6aff"/>
      <stop offset="1" stop-color="#0cb2ff"/>
    </linearGradient>
    <radialGradient id="radial-gradient" cx="65.48" cy="-11.33" fx="65.48" fy="-11.33" r="841.45" gradientUnits="userSpaceOnUse">
      <stop offset="0" stop-color="#0a5ccc"/>
      <stop offset="1" stop-color="#010d01"/>
    </radialGradient>
    <radialGradient id="radial-gradient-2" cx="67.72" cy="244.89" fx="67.72" fy="244.89" r="866.83" gradientUnits="userSpaceOnUse">
      <stop offset="0" stop-color="#fff"/>
      <stop offset="1" stop-color="#00eaff"/>
    </radialGradient>
    <radialGradient id="radial-gradient-3" cx="-31.98" cy="16.25" fx="-31.98" fy="16.25" r="319" xlink:href="#radial-gradient"/>
    <linearGradient id="linear-gradient-3" x1="888.68" y1="138.3" x2="912.98" y2="138.3" gradientUnits="userSpaceOnUse">
      <stop offset="0" stop-color="#fff"/>
      <stop offset="1" stop-color="#00d9ff"/>
    </linearGradient>
    <linearGradient id="linear-gradient-4" x1="12.15" y1="175.98" x2="12.15" y2="9.51" gradientUnits="userSpaceOnUse">
      <stop offset="0" stop-color="#010d01"/>
      <stop offset="1" stop-color="#0cafe6"/>
    </linearGradient>
    <radialGradient id="radial-gradient-4" cx="82.81" cy="-6.72" fx="82.81" fy="-6.72" r="709.44" xlink:href="#radial-gradient"/>
    <radialGradient id="radial-gradient-5" cx="-66.31" cy="227.13" fx="-66.31" fy="227.13" r="128.85" gradientTransform="translate(737.76) scale(4.21 1)" xlink:href="#radial-gradient"/>
    <linearGradient id="linear-gradient-5" x1="20.91" y1="94.05" x2="892.96" y2="94.05" gradientUnits="userSpaceOnUse">
      <stop offset="0" stop-color="#47b009"/>
      <stop offset="1" stop-color="#010d01"/>
    </linearGradient>
  </defs>
  <g class="cls-15">
    <g id="Layer_2" data-name="Layer 2">
      <g id="Layer_1-2" data-name="Layer 1">
        <g>
          <g>
            <path class="cls-9" d="M32.41,0h848.16c17.85,0,32.41,14.56,32.41,32.41v211.79c0,17.85-14.56,32.41-32.41,32.41H32.41c-17.85,0-32.41-14.56-32.41-32.41V32.41C0,23.48,3.64,15.38,9.51,9.51,15.38,3.64,23.48,0,32.41,0h0Z"/>
            <path class="cls-1" d="M32.41,20.91c-3.15,0-6.03,1.3-8.12,3.38-2.09,2.09-3.38,4.96-3.38,8.12v211.79c0,6.31,5.19,11.5,11.5,11.5h848.16c6.31,0,11.5-5.19,11.5-11.5V32.41c0-6.31-5.19-11.5-11.5-11.5H32.41Z"/>
            <path class="cls-4" d="M32.41,20.91h848.16c3.15,0,6.03,1.3,8.12,3.38l14.78-14.78c-5.87-5.87-13.97-9.51-22.9-9.51H32.41C23.48,0,15.38,3.64,9.51,9.51l14.78,14.78c2.09-2.09,4.96-3.38,8.12-3.38h0Z"/>
            <path class="cls-2" d="M880.57,255.7H32.41c-3.15,0-6.03-1.3-8.12-3.38l-14.78,14.78c5.87,5.87,13.97,9.51,22.9,9.51h848.16c8.92,0,17.03-3.64,22.9-9.51l-14.78-14.78c-2.09,2.09-4.96,3.38-8.12,3.38h0Z"/>
            <path class="cls-13" d="M20.91,244.2V32.41c0-3.15,1.3-6.03,3.38-8.12l-14.78-14.78C3.64,15.38,0,23.48,0,32.41v211.79c0,8.93,3.64,17.03,9.51,22.9l14.78-14.78c-2.09-2.09-3.38-4.96-3.38-8.12h0Z"/>
            <path class="cls-5" d="M892.07,32.41v211.79c0,3.16-1.3,6.03-3.38,8.12l14.78,14.78c5.87-5.87,9.51-13.97,9.51-22.9V32.41c0-8.92-3.64-17.03-9.51-22.9l-14.78,14.78c2.09,2.09,3.38,4.96,3.38,8.12h0Z"/>
            <path class="cls-7" d="M20.91,167.19V32.41c0-3.15,1.3-6.03,3.38-8.12l-14.78-14.78C3.64,15.38,0,23.48,0,32.41v143.57c3.69-3.59,15.32-8.31,20.91-8.79h0Z"/>
            <path class="cls-12" d="M880.57,3.14H32.41c-7.79,0-15.18,3.09-20.68,8.59-5.5,5.5-8.59,12.89-8.59,20.68v135.33c0,9.62,14.64,9.62,14.64,0V32.41c0-3.89,1.56-7.59,4.3-10.33,2.75-2.75,6.45-4.3,10.33-4.3h848.16c8.04,0,14.64,6.6,14.64,14.64v31.64c0,9.62,14.64,9.62,14.64,0v-31.64c0-16.12-13.15-29.27-29.27-29.27h0Z"/>
            <path class="cls-6" d="M322.65,14.89c-157.65,0-285.46,1.91-285.46,2.88s235.38.87,285.46.87,285.46.1,285.46-.87-127.8-2.88-285.46-2.88h0Z"/>
            <path class="cls-14" d="M14.39,264.67c1.63-2.59,5.4-6.66,7.95-8.37,1.61-1.07,3.5-1.52,5.38-1.62-3.2-1.45-5.64-4.32-6.48-7.79.26,2.42.06,5.05-1.25,7.23-1.57,2.63-5.45,6.61-7.95,8.37-1.87,1.31-3.95,1.34-5.54,1.13,2,2.66,4.4,5.01,7.11,6.94-.33-1.61-.51-3.83.79-5.89h0Z"/>
            <path class="cls-14" d="M898.59,264.67c-1.63-2.59-5.4-6.66-7.95-8.37-1.61-1.07-3.5-1.52-5.38-1.62,3.2-1.45,5.64-4.32,6.48-7.79-.26,2.42-.06,5.05,1.24,7.23,1.57,2.63,5.45,6.61,7.95,8.37,1.87,1.31,3.95,1.34,5.54,1.13-2,2.66-4.4,5.01-7.11,6.94.33-1.61.51-3.83-.79-5.89h0Z"/>
            <path class="cls-8" d="M14.39,11.94c1.63,2.59,5.4,6.66,7.95,8.37,1.61,1.07,3.5,1.52,5.38,1.62-3.2,1.45-5.64,4.32-6.48,7.79.26-2.42.06-5.05-1.25-7.23-1.57-2.63-5.45-6.61-7.95-8.37-1.87-1.31-3.95-1.34-5.54-1.13,2-2.66,4.4-5.01,7.11-6.94-.33,1.61-.51,3.83.79,5.89h0Z"/>
            <path class="cls-8" d="M898.59,11.94c-1.63,2.59-5.4,6.66-7.95,8.37-1.61,1.07-3.5,1.52-5.38,1.62,3.2,1.45,5.64,4.32,6.48,7.79-.26-2.42-.06-5.05,1.24-7.23,1.57-2.63,5.45-6.61,7.95-8.37,1.87-1.31,3.95-1.34,5.54-1.13-2-2.66-4.4-5.01-7.11-6.94.33,1.61.51,3.83-.79,5.89h0Z"/>
          </g>
          <path class="cls-3" d="M456.94,266.17c-234.93,0-425.37-4.03-425.37-6.08s350.76-1.84,425.37-1.84,425.37-.2,425.37,1.84-190.45,6.08-425.37,6.08h0Z"/>
          <path class="cls-11" d="M830.32,252.82c-28.72,0-52,1.91-52,2.88s27.8,1.61,52,1.61,52-.64,52-1.61-23.28-2.88-52-2.88h0Z"/>
          <path class="cls-11" d="M741.97,253.48c-18.18,0-32.93,1.48-32.93,2.22s17.61,1.24,32.93,1.24,32.93-.49,32.93-1.24-14.74-2.22-32.93-2.22h0Z"/>
          <path class="cls-10" d="M20.91,167.19c117.42-15.87,751.64-82.02,872.06-98.71v-36.08c0-6.31-5.19-11.5-11.5-11.5H32.41c-3.15,0-6.03,1.3-8.12,3.38-2.09,2.09-3.38,4.96-3.38,8.12v134.78h0Z"/>
        </g>
      </g>
    </g>
  </g>
</svg>