<?xml version="1.0" encoding="UTF-8"?>
<svg xmlns="http://www.w3.org/2000/svg" xmlns:xlink="http://www.w3.org/1999/xlink" viewBox="0 0 913.87 276.61">
  <defs>
    <style>
      .cls-1 {
        fill: url(#linear-gradient-2);
      }

      .cls-1, .cls-2, .cls-3, .cls-4, .cls-5, .cls-6, .cls-7, .cls-8, .cls-9, .cls-10, .cls-11, .cls-12, .cls-13, .cls-14, .cls-15 {
        fill-rule: evenodd;
      }

      .cls-2 {
        fill: url(#linear-gradient-3);
      }

      .cls-3 {
        fill: url(#linear-gradient-4);
      }

      .cls-4 {
        fill: #fff;
      }

      .cls-5 {
        fill: url(#radial-gradient);
      }

      .cls-6 {
        fill: url(#radial-gradient-2);
        opacity: .3;
      }

      .cls-6, .cls-7, .cls-8, .cls-10, .cls-14, .cls-15 {
        mix-blend-mode: screen;
      }

      .cls-7 {
        fill: url(#radial-gradient-4);
      }

      .cls-7, .cls-8, .cls-13 {
        opacity: .5;
      }

      .cls-8 {
        fill: url(#radial-gradient-7);
      }

      .cls-9 {
        fill: #d6ac8a;
        mix-blend-mode: multiply;
      }

      .cls-10 {
        fill: #f27272;
      }

      .cls-11 {
        fill: #ab0000;
      }

      .cls-16 {
        isolation: isolate;
      }

      .cls-12 {
        fill: url(#linear-gradient);
      }

      .cls-13 {
        fill: url(#radial-gradient-3);
      }

      .cls-14 {
        fill: url(#radial-gradient-6);
      }

      .cls-15 {
        fill: url(#radial-gradient-5);
      }
    </style>
    <linearGradient id="linear-gradient" x1="456.94" y1="24.29" x2="456.94" y2="0" gradientUnits="userSpaceOnUse">
      <stop offset="0" stop-color="#ff5c5c"/>
      <stop offset="1" stop-color="#ff2929"/>
    </linearGradient>
    <radialGradient id="radial-gradient" cx="100.33" cy="255.7" fx="100.33" fy="255.7" r="797.74" gradientUnits="userSpaceOnUse">
      <stop offset="0" stop-color="#fa1900"/>
      <stop offset="1" stop-color="#780000"/>
    </radialGradient>
    <linearGradient id="linear-gradient-2" x1="0" y1="138.3" x2="24.29" y2="138.3" gradientUnits="userSpaceOnUse">
      <stop offset="0" stop-color="#f21616"/>
      <stop offset="1" stop-color="#ff6040"/>
    </linearGradient>
    <linearGradient id="linear-gradient-3" x1="889.58" y1="138.3" x2="913.87" y2="138.3" gradientUnits="userSpaceOnUse">
      <stop offset="0" stop-color="#b81200"/>
      <stop offset="1" stop-color="#780000"/>
    </linearGradient>
    <radialGradient id="radial-gradient-2" cx="1532.51" cy="227.13" fx="1532.51" fy="227.13" r="128.85" gradientTransform="translate(-5988.62) scale(4.21 1)" gradientUnits="userSpaceOnUse">
      <stop offset="0" stop-color="#ffc2c2"/>
      <stop offset="1" stop-color="#ffa3a3"/>
    </radialGradient>
    <radialGradient id="radial-gradient-3" cx="12.15" cy="92.75" fx="12.15" fy="92.75" r="59.48" gradientUnits="userSpaceOnUse">
      <stop offset="0" stop-color="#ffe9c2"/>
      <stop offset="1" stop-color="#ffdda3"/>
    </radialGradient>
    <radialGradient id="radial-gradient-4" cx="169.02" cy="-5.3" fx="169.02" fy="-5.3" r="704.41" gradientUnits="userSpaceOnUse">
      <stop offset="0" stop-color="#ffc2c2"/>
      <stop offset="1" stop-color="#000"/>
    </radialGradient>
    <radialGradient id="radial-gradient-5" cx="26.25" cy="27.68" fx="26.25" fy="27.68" r="36.82" gradientUnits="userSpaceOnUse">
      <stop offset="0" stop-color="#ff8c8c"/>
      <stop offset="1" stop-color="#870e0e"/>
    </radialGradient>
    <radialGradient id="radial-gradient-6" cx="888.95" cy="26.64" fx="888.95" fy="26.64" r="40.42" xlink:href="#radial-gradient-5"/>
    <linearGradient id="linear-gradient-4" x1="730.26" y1="411.63" x2="183.61" y2="-135.02" gradientUnits="userSpaceOnUse">
      <stop offset="0" stop-color="#ff2424"/>
      <stop offset="1" stop-color="#ff6c4f"/>
    </linearGradient>
    <radialGradient id="radial-gradient-7" cx="96.6" cy="7.67" fx="96.6" fy="7.67" r="753.15" xlink:href="#radial-gradient-4"/>
  </defs>
  <g class="cls-16">
    <g id="Layer_2" data-name="Layer 2">
      <g id="Layer_1-2" data-name="Layer 1">
        <g>
          <path class="cls-11" d="M32.41,0h849.06c17.85,0,32.41,14.56,32.41,32.41v211.79c0,17.85-14.56,32.41-32.41,32.41H32.41c-17.85,0-32.41-14.56-32.41-32.41V32.41C0,23.48,3.64,15.38,9.51,9.51,15.38,3.64,23.48,0,32.41,0h0Z"/>
          <path class="cls-12" d="M32.41,20.91h849.06c3.16,0,6.03,1.3,8.12,3.38l14.78-14.78c-5.87-5.87-13.97-9.51-22.9-9.51H32.41C23.48,0,15.38,3.64,9.51,9.51l14.78,14.78c2.09-2.09,4.96-3.38,8.12-3.38h0Z"/>
          <path class="cls-5" d="M881.47,255.7H32.41c-3.15,0-6.03-1.3-8.12-3.38l-14.78,14.78c5.87,5.87,13.97,9.51,22.9,9.51h849.06c8.93,0,17.03-3.64,22.9-9.51l-14.78-14.78c-2.09,2.09-4.96,3.38-8.12,3.38h0Z"/>
          <path class="cls-1" d="M20.91,244.2V32.41c0-3.15,1.3-6.03,3.38-8.12l-14.78-14.78C3.64,15.38,0,23.48,0,32.41v211.79c0,8.93,3.64,17.03,9.51,22.9l14.78-14.78c-2.09-2.09-3.38-4.96-3.38-8.12h0Z"/>
          <path class="cls-2" d="M892.96,32.41v211.79c0,3.16-1.3,6.03-3.38,8.12l14.78,14.78c5.87-5.87,9.51-13.97,9.51-22.9V32.41c0-8.92-3.64-17.03-9.51-22.9l-14.78,14.78c2.09,2.09,3.38,4.96,3.38,8.12h0Z"/>
          <path class="cls-6" d="M456.94,266.17c-234.93,0-425.37-4.03-425.37-6.08s350.76-1.84,425.37-1.84,425.37-.2,425.37,1.84-190.45,6.08-425.37,6.08h0Z"/>
          <path class="cls-13" d="M20.91,167.19V32.41c0-3.15,1.3-6.03,3.38-8.12l-14.78-14.78C3.64,15.38,0,23.48,0,32.41v143.57c3.69-3.59,15.32-8.31,20.91-8.79h0Z"/>
          <path class="cls-7" d="M881.47,3.14H32.41c-7.79,0-15.18,3.09-20.68,8.59-5.5,5.5-8.59,12.89-8.59,20.68v135.33c0,9.62,14.64,9.62,14.64,0V32.41c0-3.89,1.56-7.59,4.3-10.33,2.75-2.75,6.45-4.3,10.33-4.3h849.06c8.04,0,14.64,6.6,14.64,14.64v31.64c0,9.62,14.64,9.62,14.64,0v-31.64c0-16.12-13.15-29.27-29.27-29.27h0Z"/>
          <path class="cls-4" d="M322.88,14.89c-157.78,0-285.68,1.91-285.68,2.88s235.57.87,285.68.87,285.68.1,285.68-.87-127.9-2.88-285.68-2.88h0Z"/>
          <path class="cls-9" d="M14.38,264.67c1.63-2.59,5.4-6.66,7.95-8.37,1.61-1.07,3.49-1.52,5.38-1.62-3.2-1.45-5.64-4.32-6.48-7.79.26,2.42.06,5.05-1.25,7.23-1.57,2.63-5.45,6.61-7.95,8.37-1.87,1.31-3.95,1.34-5.54,1.13,2,2.66,4.4,5.01,7.11,6.94-.33-1.61-.51-3.83.78-5.89h0Z"/>
          <path class="cls-9" d="M899.49,264.67c-1.63-2.59-5.4-6.66-7.95-8.37-1.61-1.07-3.5-1.52-5.38-1.62,3.2-1.45,5.64-4.32,6.48-7.79-.26,2.42-.06,5.05,1.24,7.23,1.57,2.63,5.45,6.61,7.95,8.37,1.87,1.31,3.95,1.34,5.54,1.13-2,2.66-4.4,5.01-7.11,6.94.33-1.61.51-3.83-.79-5.89h0Z"/>
          <path class="cls-15" d="M14.38,11.94c1.63,2.59,5.4,6.66,7.95,8.37,1.61,1.07,3.49,1.52,5.38,1.62-3.2,1.45-5.64,4.32-6.48,7.79.26-2.42.06-5.05-1.25-7.23-1.57-2.63-5.45-6.61-7.95-8.37-1.87-1.31-3.95-1.34-5.54-1.13,2-2.66,4.4-5.01,7.11-6.94-.33,1.61-.51,3.83.78,5.89h0Z"/>
          <path class="cls-14" d="M899.49,11.94c-1.63,2.59-5.4,6.66-7.95,8.37-1.61,1.07-3.5,1.52-5.38,1.62,3.2,1.45,5.64,4.32,6.48,7.79-.26-2.42-.06-5.05,1.24-7.23,1.57-2.63,5.45-6.61,7.95-8.37,1.87-1.31,3.95-1.34,5.54-1.13-2-2.66-4.4-5.01-7.11-6.94.33,1.61.51,3.83-.79,5.89h0Z"/>
          <path class="cls-3" d="M32.41,20.91c-3.15,0-6.03,1.3-8.12,3.38s-3.38,4.96-3.38,8.12v211.79c0,6.31,5.19,11.5,11.5,11.5h849.06c6.31,0,11.5-5.19,11.5-11.5V32.41c0-6.31-5.19-11.5-11.5-11.5H32.41Z"/>
          <path class="cls-10" d="M830.32,252.82c-28.72,0-52,1.91-52,2.88s27.8,1.61,52,1.61,52-.64,52-1.61-23.28-2.88-52-2.88h0Z"/>
          <path class="cls-10" d="M741.97,253.48c-18.18,0-32.93,1.48-32.93,2.22s17.61,1.24,32.93,1.24,32.93-.49,32.93-1.24-14.74-2.22-32.93-2.22h0Z"/>
          <path class="cls-8" d="M20.91,167.19c117.42-15.87,751.64-82.02,872.06-98.71v-36.08c0-6.31-5.19-11.5-11.5-11.5H32.41c-3.15,0-6.03,1.3-8.12,3.38s-3.38,4.96-3.38,8.12v134.78h0Z"/>
        </g>
      </g>
    </g>
  </g>
</svg>