<?xml version="1.0" encoding="UTF-8"?>
<svg xmlns="http://www.w3.org/2000/svg" xmlns:xlink="http://www.w3.org/1999/xlink" viewBox="0 0 484.8 484.8">
  <defs>
    <style>
      .cls-1 {
        fill: #a7a9ac;
        font-family: Myriad-Bold, 'Myriad Bold';
        font-size: 20px;
        font-weight: 700;
        letter-spacing: .02em;
      }

      .cls-2 {
        fill: #03bfd7;
      }

      .cls-3, .cls-4 {
        mix-blend-mode: multiply;
        opacity: .25;
      }

      .cls-5 {
        fill: url(#linear-gradient-2);
      }

      .cls-6, .cls-4 {
        fill: #231f20;
      }

      .cls-7 {
        isolation: isolate;
      }

      .cls-8 {
        fill: #b0dfdb;
      }

      .cls-9 {
        fill: url(#linear-gradient);
        filter: url(#drop-shadow-1);
      }
    </style>
    <linearGradient id="linear-gradient" x1="165.23" y1="319.47" x2="361.07" y2="123.63" gradientTransform="translate(439.8 -73.63) rotate(80.8)" gradientUnits="userSpaceOnUse">
      <stop offset="0" stop-color="#e6e6e6"/>
      <stop offset=".04" stop-color="#eaeaea"/>
      <stop offset=".19" stop-color="#f6f6f6"/>
      <stop offset=".41" stop-color="#fdfdfd"/>
      <stop offset="1" stop-color="#fff"/>
    </linearGradient>
    <filter id="drop-shadow-1" x="0" y="0" width="484.8" height="484.8" filterUnits="userSpaceOnUse">
      <feOffset dx="-20.76" dy="20.76"/>
      <feGaussianBlur result="blur" stdDeviation="34.6"/>
      <feFlood flood-color="#231f20" flood-opacity=".3"/>
      <feComposite in2="blur" operator="in"/>
      <feComposite in="SourceGraphic"/>
    </filter>
    <linearGradient id="linear-gradient-2" x1="353.06" y1="131.64" x2="173.24" y2="311.46" gradientUnits="userSpaceOnUse">
      <stop offset="0" stop-color="#f2f2f2"/>
      <stop offset=".08" stop-color="#f5f5f5"/>
      <stop offset=".35" stop-color="#fcfcfc"/>
      <stop offset="1" stop-color="#fff"/>
    </linearGradient>
  </defs>
  <g class="cls-7">
    <g id="Layer_2" data-name="Layer 2">
      <g id="volume">
        <g>
          <circle class="cls-9" cx="263.15" cy="221.55" r="138.48" transform="translate(2.39 445.91) rotate(-80.8)"/>
          <path class="cls-5" d="M390.3,221.55c0,70.22-56.92,127.15-127.15,127.15s-127.15-56.93-127.15-127.15,56.92-127.15,127.15-127.15,127.15,56.92,127.15,127.15Z"/>
        </g>
        <g>
          <g>
            <path class="cls-2" d="M269.9,62.76c0,3.73-3.02,6.75-6.75,6.75s-6.75-3.02-6.75-6.75,3.02-6.75,6.75-6.75,6.75,3.02,6.75,6.75Z"/>
            <path class="cls-2" d="M215.18,70.03c1.27,3.5-.53,7.37-4.03,8.65-3.5,1.27-7.37-.53-8.65-4.03-1.27-3.5.53-7.37,4.03-8.65,3.5-1.27,7.37.53,8.65,4.03Z"/>
            <path class="cls-2" d="M166.25,95.57c2.4,2.85,2.02,7.11-.83,9.5-2.85,2.4-7.11,2.02-9.5-.83-2.4-2.85-2.02-7.11.83-9.5,2.85-2.4,7.11-2.02,9.5.83Z"/>
            <path class="cls-2" d="M129.01,136.31c3.23,1.86,4.33,5.99,2.47,9.22-1.86,3.23-5.99,4.33-9.22,2.47-3.23-1.86-4.33-5.99-2.47-9.22,1.86-3.23,5.99-4.33,9.22-2.47Z"/>
            <path class="cls-2" d="M107.94,187.33c3.67.65,6.12,4.15,5.47,7.82-.65,3.67-4.15,6.12-7.82,5.47-3.67-.65-6.12-4.15-5.47-7.82.65-3.67,4.15-6.12,7.82-5.47Z"/>
            <path class="cls-2" d="M105.6,242.48c3.67-.65,7.17,1.8,7.82,5.47.65,3.67-1.8,7.17-5.47,7.81-3.67.65-7.17-1.8-7.82-5.47-.65-3.67,1.8-7.17,5.47-7.82Z"/>
            <path class="cls-2" d="M122.26,295.1c3.23-1.86,7.35-.76,9.22,2.47,1.86,3.23.76,7.35-2.47,9.22-3.23,1.86-7.35.76-9.22-2.47-1.86-3.23-.76-7.35,2.47-9.22Z"/>
            <path class="cls-8" d="M397.29,306.79c-3.23-1.86-4.33-5.99-2.47-9.22,1.86-3.23,5.99-4.33,9.21-2.47,3.23,1.86,4.33,5.99,2.47,9.22-1.86,3.22-5.99,4.33-9.22,2.47Z"/>
            <path class="cls-8" d="M418.36,255.77c-3.67-.65-6.12-4.15-5.47-7.82.65-3.67,4.15-6.12,7.81-5.47,3.67.65,6.12,4.15,5.48,7.82-.65,3.66-4.15,6.12-7.82,5.47Z"/>
            <path class="cls-8" d="M420.7,200.62c-3.67.65-7.17-1.8-7.81-5.47-.65-3.67,1.8-7.17,5.47-7.82,3.67-.65,7.17,1.8,7.82,5.47.64,3.66-1.81,7.17-5.48,7.81Z"/>
            <path class="cls-8" d="M404.04,148c-3.23,1.86-7.35.76-9.22-2.47-1.87-3.23-.76-7.35,2.47-9.22,3.23-1.87,7.36-.76,9.22,2.47,1.86,3.22.75,7.35-2.47,9.22Z"/>
            <path class="cls-8" d="M370.39,104.25c-2.4,2.85-6.65,3.23-9.5.83-2.86-2.4-3.23-6.65-.83-9.5,2.4-2.86,6.65-3.23,9.51-.83,2.85,2.39,3.22,6.65.83,9.51Z"/>
            <path class="cls-8" d="M323.8,74.64c-1.28,3.5-5.15,5.31-8.65,4.03-3.5-1.27-5.31-5.15-4.03-8.65,1.28-3.5,5.15-5.31,8.65-4.03,3.5,1.27,5.3,5.15,4.03,8.65Z"/>
          </g>
          <g class="cls-3">
            <path class="cls-6" d="M106.94,188.33c3.67.65,6.12,4.15,5.47,7.82-.2,1.16-.7,2.2-1.38,3.05,1.21-.99,2.09-2.39,2.38-4.05.65-3.67-1.8-7.17-5.47-7.82-2.51-.44-4.94.57-6.43,2.42,1.47-1.19,3.42-1.77,5.43-1.42Z"/>
            <path class="cls-6" d="M122.26,295.1c-.74.43-1.37.98-1.87,1.61.27-.22.56-.43.87-.61,3.23-1.86,7.35-.76,9.22,2.47,1.43,2.49,1.1,5.5-.6,7.6,2.53-2.05,3.28-5.69,1.6-8.6-1.86-3.23-5.99-4.33-9.22-2.47Z"/>
            <path class="cls-6" d="M105.6,242.48c-1.66.29-3.07,1.17-4.05,2.39.86-.69,1.89-1.18,3.05-1.39,3.67-.65,7.17,1.8,7.82,5.47.35,2.01-.23,3.96-1.42,5.43,1.85-1.49,2.86-3.92,2.42-6.43-.65-3.67-4.15-6.12-7.82-5.47Z"/>
            <path class="cls-6" d="M128.01,137.31c3.23,1.86,4.33,5.99,2.47,9.22-.18.31-.39.6-.61.87.63-.51,1.18-1.13,1.61-1.87,1.86-3.23.76-7.35-2.47-9.22-2.91-1.68-6.55-.94-8.61,1.6,2.11-1.7,5.12-2.03,7.61-.6Z"/>
            <path class="cls-6" d="M396.29,137.31c3.23-1.87,7.36-.76,9.22,2.47,1.43,2.48,1.1,5.5-.6,7.61,2.53-2.05,3.28-5.7,1.6-8.61-1.86-3.23-5.99-4.34-9.22-2.47-.74.43-1.37.98-1.87,1.61.27-.22.56-.43.87-.61Z"/>
            <path class="cls-6" d="M417.36,188.33c3.67-.65,7.17,1.8,7.82,5.47.35,2.01-.23,3.96-1.42,5.43,1.85-1.49,2.86-3.92,2.42-6.43-.65-3.67-4.15-6.12-7.82-5.47-1.66.29-3.07,1.17-4.05,2.38.86-.69,1.89-1.18,3.05-1.38Z"/>
            <path class="cls-6" d="M420.7,242.48c-2.51-.44-4.94.56-6.43,2.42,1.47-1.19,3.42-1.77,5.43-1.42,3.67.65,6.12,4.15,5.48,7.82-.2,1.16-.69,2.19-1.38,3.05,1.21-.99,2.09-2.39,2.38-4.05.65-3.67-1.8-7.17-5.48-7.82Z"/>
            <path class="cls-6" d="M369.56,94.74c-2.86-2.4-7.11-2.02-9.51.83-.02.03-.04.06-.06.08,2.46-1.99,6.06-2.02,8.57.09,2.82,2.37,3.21,6.57.89,9.42.33-.27.65-.57.94-.91,2.39-2.86,2.02-7.11-.83-9.51Z"/>
            <path class="cls-6" d="M156.75,94.74c-.34.29-.65.6-.92.94,2.85-2.32,7.05-1.93,9.42.89,2.11,2.51,2.07,6.11.09,8.57.03-.02.06-.04.08-.06,2.86-2.4,3.23-6.65.83-9.5-2.39-2.85-6.65-3.23-9.5-.83Z"/>
            <path class="cls-6" d="M319.77,65.99c-2.78-1.01-5.79-.08-7.56,2.11,1.78-1.44,4.25-1.95,6.56-1.11,3.5,1.27,5.3,5.15,4.03,8.65-.26.72-.64,1.36-1.09,1.92.92-.74,1.66-1.73,2.09-2.92,1.27-3.5-.53-7.37-4.03-8.65Z"/>
            <path class="cls-6" d="M404.04,295.1c-2.91-1.68-6.55-.94-8.6,1.59,2.11-1.7,5.12-2.03,7.6-.59,3.23,1.86,4.33,5.99,2.47,9.22-.18.31-.39.6-.61.87.63-.51,1.18-1.13,1.61-1.87,1.86-3.23.76-7.36-2.47-9.22Z"/>
            <path class="cls-6" d="M206.53,66c-1.19.43-2.18,1.17-2.93,2.09.56-.46,1.21-.83,1.93-1.09,3.5-1.27,7.37.53,8.65,4.03.84,2.31.34,4.77-1.11,6.55,2.18-1.76,3.12-4.77,2.11-7.55-1.27-3.5-5.15-5.31-8.65-4.03Z"/>
            <path class="cls-6" d="M263.15,56.01c-2.12,0-4.01.98-5.24,2.5,1.16-.94,2.63-1.5,4.24-1.5,3.73,0,6.75,3.02,6.75,6.75,0,1.61-.56,3.08-1.5,4.24,1.53-1.24,2.5-3.12,2.5-5.24,0-3.73-3.02-6.75-6.75-6.75Z"/>
          </g>
          <g>
            <path class="cls-2" d="M273.81,122.84l-8.42-14.59c-1.23-2.13-3.24-2.13-4.46,0l-8.42,14.59c-1.23,2.13-.22,3.87,2.23,3.87h16.85c2.45,0,3.46-1.74,2.23-3.87Z"/>
            <path class="cls-4" d="M273.81,122.84l-8.42-14.59c-1.17-2.02-3.03-2.1-4.27-.27,1.11-.66,2.39-.25,3.27,1.27l8.42,14.59c.57.98.64,1.87.33,2.56,1.26-.59,1.59-1.97.67-3.56Z"/>
          </g>
        </g>
        <text class="cls-1" transform="translate(109.76 343.06)"><tspan x="0" y="0">min</tspan></text>
        <text class="cls-1" transform="translate(382.48 343.06)"><tspan x="0" y="0">max</tspan></text>
      </g>
    </g>
  </g>
</svg>